<?xml version="1.0" encoding="UTF-8" standalone="no"?>
<!DOCTYPE svg PUBLIC "-//W3C//DTD SVG 1.1//EN"
 "http://www.w3.org/Graphics/SVG/1.1/DTD/svg11.dtd">
<!-- Generated by graphviz version 2.38.0 (20140413.2041)
 -->
<!-- Title: G Pages: 1 -->
<svg width="183pt" height="222pt"
 viewBox="0.00 0.00 183.00 222.00" xmlns="http://www.w3.org/2000/svg" xmlns:xlink="http://www.w3.org/1999/xlink">
<g id="graph0" class="graph" transform="scale(1 1) rotate(0) translate(4 218)">
<title>G</title>
<polygon fill="white" stroke="none" points="-4,4 -4,-218 179,-218 179,4 -4,4"/>
<g id="clust1" class="cluster"><title>cluster_Global</title>
<path fill="none" stroke="gray" d="M20,-8C20,-8 155,-8 155,-8 161,-8 167,-14 167,-20 167,-20 167,-194 167,-194 167,-200 161,-206 155,-206 155,-206 20,-206 20,-206 14,-206 8,-200 8,-194 8,-194 8,-20 8,-20 8,-14 14,-8 20,-8"/>
<text text-anchor="middle" x="87.5" y="-193.2" font-family="Times,serif" font-size="11.00" fill="gray">Global</text>
</g>
<g id="clust2" class="cluster"><title>cluster_\megaquiz</title>
<path fill="none" stroke="gray" d="M28,-16C28,-16 147,-16 147,-16 153,-16 159,-22 159,-28 159,-28 159,-166 159,-166 159,-172 153,-178 147,-178 147,-178 28,-178 28,-178 22,-178 16,-172 16,-166 16,-166 16,-28 16,-28 16,-22 22,-16 28,-16"/>
<text text-anchor="middle" x="87.5" y="-165.2" font-family="Times,serif" font-size="11.00" fill="gray">megaquiz</text>
</g>
<g id="clust3" class="cluster"><title>cluster_\megaquiz\command</title>
<path fill="none" stroke="gray" d="M36,-24C36,-24 139,-24 139,-24 145,-24 151,-30 151,-36 151,-36 151,-138 151,-138 151,-144 145,-150 139,-150 139,-150 36,-150 36,-150 30,-150 24,-144 24,-138 24,-138 24,-36 24,-36 24,-30 30,-24 36,-24"/>
<text text-anchor="middle" x="87.5" y="-137.2" font-family="Times,serif" font-size="11.00" fill="gray">command</text>
</g>
<!-- \\megaquiz\\command\\Command -->
<g id="node1" class="node"><title>\\megaquiz\\command\\Command</title>
<polygon fill="none" stroke="black" points="129.5,-122 45.5,-122 45.5,-86 129.5,-86 129.5,-122"/>
<text text-anchor="start" x="53.5" y="-107.2" font-family="Courier,monospace" font-size="11.00">«abstract»</text>
<text text-anchor="start" x="63.5" y="-95.2" font-family="Courier,monospace" font-size="11.00">Command</text>
</g>
<!-- \\megaquiz\\command\\CommandContext -->
<g id="node2" class="node"><title>\\megaquiz\\command\\CommandContext</title>
<polygon fill="none" stroke="black" points="143,-68 32,-68 32,-32 143,-32 143,-68"/>
<text text-anchor="middle" x="87.5" y="-47.2" font-family="Courier,monospace" font-size="11.00">CommandContext</text>
</g>
</g>
</svg>
